<svg width="130" height="130" viewBox="0 0 130 130" fill="none" xmlns="http://www.w3.org/2000/svg">
<path d="M0 65C0 13 13 0 65 0C117 0 130 13 130 65C130 117 117 130 65 130C13 130 0 117 0 65Z" fill="#5FD8FF"/>
<g clip-path="url(#clip0_103_40)" filter="url(#filter0_dd_103_40)">
<path d="M64.9733 28.65C64.6642 28.6516 64.3584 28.7142 64.0735 28.8344C63.7886 28.9545 63.5303 29.1297 63.3133 29.35L25.54 67.6633C25.1933 68.0151 24.9993 68.4894 25 68.9833C25.0009 69.4834 25.1999 69.9628 25.5536 70.3164C25.9072 70.6701 26.3866 70.8691 26.8867 70.87H33.9V97.7867C33.9 98.6533 34.6 99.3533 35.4667 99.3533H61.96V87.0767L51.79 76.8933C50.7917 77.3178 49.7181 77.5367 48.6333 77.5367C46.491 77.5349 44.437 76.6824 42.923 75.1666C41.4091 73.6507 40.5591 71.5957 40.56 69.4533C40.5609 68.2571 40.8277 67.076 41.341 65.9954C41.8544 64.9149 42.6014 63.962 43.5281 63.2055C44.4548 62.449 45.5381 61.908 46.6995 61.6214C47.861 61.3349 49.0716 61.31 50.2438 61.5486C51.416 61.7873 52.5205 62.2834 53.4775 63.0012C54.4345 63.719 55.22 64.6405 55.7773 65.699C56.3345 66.7576 56.6495 67.9267 56.6996 69.122C56.7496 70.3172 56.5335 71.5086 56.0667 72.61L61.96 78.5033V60.5867C60.2228 59.8818 58.7845 58.5953 57.8911 56.9471C56.9976 55.2989 56.7046 53.3915 57.0621 51.5512C57.4196 49.7108 58.4055 48.0519 59.851 46.8581C61.2965 45.6643 63.1119 45.0098 64.9867 45.0067C66.0478 45.0075 67.0983 45.2174 68.0782 45.6243C69.0582 46.0311 69.9485 46.627 70.6981 47.378C71.4478 48.1289 72.0423 49.0201 72.4475 50.0007C72.8527 50.9814 73.0609 52.0323 73.06 53.0933C73.0604 54.7029 72.5803 56.2759 71.6812 57.6108C70.7821 58.9458 69.505 59.982 68.0133 60.5867V78.5033L73.9 72.61C73.4766 71.6115 73.259 70.5379 73.26 69.4533C73.26 67.3113 74.1109 65.2569 75.6256 63.7423C77.1403 62.2276 79.1946 61.3767 81.3367 61.3767C83.4787 61.3767 85.5331 62.2276 87.0477 63.7423C88.5624 65.2569 89.4133 67.3113 89.4133 69.4533C89.4142 71.5957 88.5642 73.6507 87.0503 75.1666C85.5363 76.6824 83.4824 77.5349 81.34 77.5367C80.2552 77.5367 79.1816 77.3178 78.1833 76.8933L68.0167 87.0767V99.3533H94.5067C94.9222 99.3533 95.3207 99.1883 95.6145 98.8945C95.9083 98.6007 96.0733 98.2022 96.0733 97.7867V70.8667H103.113C103.607 70.8652 104.08 70.6715 104.433 70.3267C104.789 69.976 104.992 69.4986 104.997 68.9988C105.002 68.4991 104.809 68.0177 104.46 67.66L96.0733 59.0833V45.57C96.0733 44.7033 95.3733 43.9933 94.5067 43.9933H87.9567C87.75 43.9938 87.5455 44.0349 87.3548 44.1144C87.1641 44.1938 86.9909 44.3101 86.8451 44.4565C86.6993 44.6029 86.5838 44.7766 86.5052 44.9677C86.4265 45.1587 86.3862 45.3634 86.3867 45.57V49.2467L66.6667 29.3467C66.4456 29.1227 66.1818 28.9453 65.8909 28.8251C65.6001 28.7049 65.2881 28.6475 64.9733 28.65ZM64.9867 49.85C64.1291 49.85 63.3067 50.1907 62.7004 50.797C62.094 51.4034 61.7533 52.2258 61.7533 53.0833C61.7533 53.9409 62.094 54.7633 62.7004 55.3696C63.3067 55.976 64.1291 56.3167 64.9867 56.3167C65.4107 56.3171 65.8306 56.234 66.2225 56.072C66.6143 55.9101 66.9704 55.6724 67.2704 55.3728C67.5704 55.0731 67.8084 54.7173 67.9707 54.3256C68.1331 53.9339 68.2167 53.514 68.2167 53.09C68.2171 52.6654 68.1339 52.2449 67.9718 51.8524C67.8097 51.4599 67.5719 51.1033 67.272 50.8027C66.9721 50.5022 66.6159 50.2636 66.2238 50.1007C65.8316 49.9378 65.4113 49.8504 64.9867 49.85ZM48.6333 66.2233C48.209 66.2229 47.7888 66.3061 47.3967 66.4683C47.0047 66.6305 46.6484 66.8684 46.3484 67.1684C46.0484 67.4684 45.8105 67.8247 45.6483 68.2167C45.4861 68.6088 45.4029 69.029 45.4033 69.4533C45.3835 69.8898 45.4523 70.3259 45.6057 70.735C45.7591 71.1442 45.9938 71.518 46.2957 71.8339C46.5976 72.1498 46.9604 72.4013 47.3622 72.5731C47.7639 72.7449 48.1964 72.8334 48.6333 72.8334C49.0703 72.8334 49.5027 72.7449 49.9045 72.5731C50.3063 72.4013 50.6691 72.1498 50.971 71.8339C51.2729 71.518 51.5076 71.1442 51.6609 70.735C51.8143 70.3259 51.8832 69.8898 51.8633 69.4533C51.8638 69.0288 51.7804 68.6083 51.618 68.216C51.4557 67.8237 51.2175 67.4673 50.9171 67.1672C50.6167 66.8672 50.2601 66.6293 49.8676 66.4673C49.4751 66.3054 49.0579 66.2225 48.6333 66.2233ZM81.34 66.2233C80.7004 66.2233 80.0751 66.4131 79.5433 66.7685C79.0115 67.1239 78.5971 67.6291 78.3525 68.2201C78.1078 68.8111 78.044 69.4614 78.169 70.0887C78.2941 70.716 78.6023 71.2921 79.0549 71.7442C79.5074 72.1962 80.0838 72.5039 80.7113 72.6283C81.3387 72.7527 81.9889 72.6882 82.5797 72.4429C83.1704 72.1977 83.6752 71.7827 84.03 71.2506C84.3849 70.7184 84.574 70.093 84.5733 69.4533C84.5738 69.0288 84.4904 68.6083 84.328 68.216C84.1657 67.8237 83.9275 67.4673 83.6271 67.1672C83.3267 66.8672 82.9701 66.6293 82.5776 66.4673C82.1851 66.3054 81.7646 66.2225 81.34 66.2233Z" fill="white"/>
</g>
<defs>
<filter id="filter0_dd_103_40" x="17.8" y="20" width="94.4" height="94.4" filterUnits="userSpaceOnUse" color-interpolation-filters="sRGB">
<feFlood flood-opacity="0" result="BackgroundImageFix"/>
<feColorMatrix in="SourceAlpha" type="matrix" values="0 0 0 0 0 0 0 0 0 0 0 0 0 0 0 0 0 0 127 0" result="hardAlpha"/>
<feOffset dy="3.2"/>
<feGaussianBlur stdDeviation="3.6"/>
<feColorMatrix type="matrix" values="0 0 0 0 0 0 0 0 0 0 0 0 0 0 0 0 0 0 0.13 0"/>
<feBlend mode="normal" in2="BackgroundImageFix" result="effect1_dropShadow_103_40"/>
<feColorMatrix in="SourceAlpha" type="matrix" values="0 0 0 0 0 0 0 0 0 0 0 0 0 0 0 0 0 0 127 0" result="hardAlpha"/>
<feOffset dy="0.6"/>
<feGaussianBlur stdDeviation="0.9"/>
<feColorMatrix type="matrix" values="0 0 0 0 0 0 0 0 0 0 0 0 0 0 0 0 0 0 0.1 0"/>
<feBlend mode="normal" in2="effect1_dropShadow_103_40" result="effect2_dropShadow_103_40"/>
<feBlend mode="normal" in="SourceGraphic" in2="effect2_dropShadow_103_40" result="shape"/>
</filter>
<clipPath id="clip0_103_40">
<rect width="80" height="80" fill="white" transform="translate(25 24)"/>
</clipPath>
</defs>
</svg>
