<svg width="130" height="130" viewBox="0 0 130 130" fill="none" xmlns="http://www.w3.org/2000/svg">
<path d="M0 65C0 13 13 0 65 0C117 0 130 13 130 65C130 117 117 130 65 130C13 130 0 117 0 65Z" fill="url(#paint0_linear_104_2)"/>
<g filter="url(#filter0_dd_104_2)">
<path d="M103 85.5988V94.54C102.998 96.1061 102.668 97.6545 102.03 99.085C101.393 100.515 100.462 101.796 99.2978 102.844C98.1339 103.892 96.763 104.684 95.2737 105.169C93.7844 105.654 92.21 105.82 90.6522 105.658C87.8322 105.261 85.256 103.842 83.412 101.672C81.5679 99.5015 80.5841 96.7301 80.6471 93.8828V81.1282C80.6471 79.9425 80.1761 78.8054 79.3377 77.967C78.4993 77.1286 77.3621 76.6576 76.1765 76.6576H71.7059C70.5202 76.6576 69.3831 77.1286 68.5447 77.967C67.7063 78.8054 67.2353 79.9425 67.2353 81.1282V103.481C67.2353 104.074 66.9998 104.643 66.5806 105.062C66.1614 105.481 65.5928 105.716 65 105.716C64.4072 105.716 63.8386 105.481 63.4194 105.062C63.0002 104.643 62.7647 104.074 62.7647 103.481V81.1282C62.7647 79.9425 62.2937 78.8054 61.4553 77.967C60.6169 77.1286 59.4798 76.6576 58.2941 76.6576H53.8235C52.6379 76.6576 51.5007 77.1286 50.6623 77.967C49.8239 78.8054 49.3529 79.9425 49.3529 81.1282V84.9416C49.4159 87.7889 48.4321 90.5603 46.588 92.7306C44.744 94.901 42.1678 96.3194 39.3478 96.7171C37.79 96.8792 36.2156 96.7125 34.7263 96.2277C33.237 95.7429 31.8661 94.9509 30.7022 93.9029C29.5384 92.8549 28.6074 91.5743 27.9697 90.1438C27.332 88.7134 27.0016 87.165 27 85.5988C27 85.006 27.2355 84.4374 27.6547 84.0182C28.0739 83.599 28.6425 83.3635 29.2353 83.3635C29.8281 83.3635 30.3967 83.599 30.8159 84.0182C31.2351 84.4374 31.4706 85.006 31.4706 85.5988C31.4706 87.3773 32.1771 89.083 33.4347 90.3406C34.6923 91.5982 36.398 92.3047 38.1765 92.3047C39.955 92.3047 41.6606 91.5982 42.9182 90.3406C44.1758 89.083 44.8824 87.3773 44.8824 85.5988V81.1282C44.8824 79.9425 44.4113 78.8054 43.5729 77.967C42.7345 77.1286 41.5974 76.6576 40.4118 76.6576H33.7059C32.5202 76.6576 31.3831 76.1866 30.5447 75.3482C29.7063 74.5098 29.2353 73.3727 29.2353 72.187V60.0002C29.1038 51.2481 32.116 42.7391 37.7246 36.0189C43.3332 29.2988 51.1662 24.8132 59.8007 23.3771C64.8829 22.6334 70.0657 22.9925 74.9967 24.43C79.9278 25.8675 84.4916 28.3498 88.3779 31.7081C92.2643 35.0664 95.3821 39.222 97.5195 43.8925C99.6568 48.563 100.764 53.6389 100.765 58.7753V72.187C100.765 73.3727 100.294 74.5098 99.4553 75.3482C98.6169 76.1866 97.4798 76.6576 96.2941 76.6576H89.5882C88.4026 76.6576 87.2654 77.1286 86.427 77.967C85.5887 78.8054 85.1176 79.9425 85.1176 81.1282V94.54C85.1176 96.3185 85.8242 98.0241 87.0818 99.2817C88.3394 100.539 90.045 101.246 91.8235 101.246C93.602 101.246 95.3077 100.539 96.5653 99.2817C97.8229 98.0241 98.5294 96.3185 98.5294 94.54V85.5988C98.5294 85.006 98.7649 84.4374 99.1841 84.0182C99.6033 83.599 100.172 83.3635 100.765 83.3635C101.358 83.3635 101.926 83.599 102.345 84.0182C102.764 84.4374 103 85.006 103 85.5988Z" fill="white"/>
</g>
<defs>
<filter id="filter0_dd_104_2" x="19.8" y="19" width="90.4" height="97.1184" filterUnits="userSpaceOnUse" color-interpolation-filters="sRGB">
<feFlood flood-opacity="0" result="BackgroundImageFix"/>
<feColorMatrix in="SourceAlpha" type="matrix" values="0 0 0 0 0 0 0 0 0 0 0 0 0 0 0 0 0 0 127 0" result="hardAlpha"/>
<feOffset dy="3.2"/>
<feGaussianBlur stdDeviation="3.6"/>
<feColorMatrix type="matrix" values="0 0 0 0 0 0 0 0 0 0 0 0 0 0 0 0 0 0 0.13 0"/>
<feBlend mode="normal" in2="BackgroundImageFix" result="effect1_dropShadow_104_2"/>
<feColorMatrix in="SourceAlpha" type="matrix" values="0 0 0 0 0 0 0 0 0 0 0 0 0 0 0 0 0 0 127 0" result="hardAlpha"/>
<feOffset dy="0.6"/>
<feGaussianBlur stdDeviation="0.9"/>
<feColorMatrix type="matrix" values="0 0 0 0 0 0 0 0 0 0 0 0 0 0 0 0 0 0 0.1 0"/>
<feBlend mode="normal" in2="effect1_dropShadow_104_2" result="effect2_dropShadow_104_2"/>
<feBlend mode="normal" in="SourceGraphic" in2="effect2_dropShadow_104_2" result="shape"/>
</filter>
<linearGradient id="paint0_linear_104_2" x1="0" y1="0" x2="116" y2="123.5" gradientUnits="userSpaceOnUse">
<stop stop-color="#B288F5"/>
<stop offset="1" stop-color="#5FD8FF"/>
</linearGradient>
</defs>
</svg>
