<svg width="130" height="130" viewBox="0 0 130 130" fill="none" xmlns="http://www.w3.org/2000/svg">
<path d="M0 65C0 13 13 0 65 0C117 0 130 13 130 65C130 117 117 130 65 130C13 130 0 117 0 65Z" fill="white"/>
<g opacity="0.1" filter="url(#filter0_f_102_23)">
<path d="M50.9506 78.6093C52.8034 82.3235 77.2292 82.2849 79.0605 78.6093C80.8897 74.938 68.7767 52.8933 65.0066 52.889C61.2345 52.889 49.0978 74.8951 50.9506 78.6093V78.6093Z" fill="url(#paint0_linear_102_23)"/>
</g>
<g opacity="0.1" filter="url(#filter1_f_102_23)">
<path d="M22.6517 97.4938C28.2273 108.69 101.844 108.561 107.359 97.4938C112.875 86.4263 76.3639 20 65.0065 20C53.6449 20 17.0761 86.2975 22.6517 97.4938V97.4938ZM37.2595 87.7789C33.6054 80.4428 57.5695 37.0038 65.0108 37.0038C72.4543 37.0038 96.3776 80.5222 92.7622 87.7789C89.1489 95.0355 40.9136 95.115 37.2595 87.7789V87.7789Z" fill="url(#paint1_linear_102_23)"/>
</g>
<g filter="url(#filter2_dd_102_23)">
<path d="M52.2346 77.1756C53.918 80.5503 76.1115 80.5152 77.7755 77.1756C79.4375 73.8398 68.4315 53.8097 65.006 53.8058C61.5786 53.8058 50.5511 73.8008 52.2346 77.1756V77.1756Z" fill="url(#paint2_linear_102_23)"/>
<path d="M26.522 94.3342C31.588 104.507 98.4765 104.39 103.488 94.3342C108.499 84.2782 75.3253 23.9226 65.0059 23.9226C54.6827 23.9226 21.4559 84.1611 26.522 94.3342V94.3342ZM39.7947 85.5071C36.4746 78.8415 58.2486 39.3724 65.0098 39.3724C71.773 39.3724 93.51 78.9137 90.225 85.5071C86.9419 92.1006 43.1149 92.1728 39.7947 85.5071V85.5071Z" fill="url(#paint3_linear_102_23)"/>
</g>
<defs>
<filter id="filter0_f_102_23" x="37.7595" y="39.889" width="54.4878" height="54.4915" filterUnits="userSpaceOnUse" color-interpolation-filters="sRGB">
<feFlood flood-opacity="0" result="BackgroundImageFix"/>
<feBlend mode="normal" in="SourceGraphic" in2="BackgroundImageFix" result="shape"/>
<feGaussianBlur stdDeviation="6.5" result="effect1_foregroundBlur_102_23"/>
</filter>
<filter id="filter1_f_102_23" x="9.07727" y="7" width="111.845" height="111.843" filterUnits="userSpaceOnUse" color-interpolation-filters="sRGB">
<feFlood flood-opacity="0" result="BackgroundImageFix"/>
<feBlend mode="normal" in="SourceGraphic" in2="BackgroundImageFix" result="shape"/>
<feGaussianBlur stdDeviation="6.5" result="effect1_foregroundBlur_102_23"/>
</filter>
<filter id="filter2_dd_102_23" x="18.8" y="19.9226" width="92.4" height="92.3975" filterUnits="userSpaceOnUse" color-interpolation-filters="sRGB">
<feFlood flood-opacity="0" result="BackgroundImageFix"/>
<feColorMatrix in="SourceAlpha" type="matrix" values="0 0 0 0 0 0 0 0 0 0 0 0 0 0 0 0 0 0 127 0" result="hardAlpha"/>
<feOffset dy="3.2"/>
<feGaussianBlur stdDeviation="3.6"/>
<feColorMatrix type="matrix" values="0 0 0 0 0 0 0 0 0 0 0 0 0 0 0 0 0 0 0.13 0"/>
<feBlend mode="normal" in2="BackgroundImageFix" result="effect1_dropShadow_102_23"/>
<feColorMatrix in="SourceAlpha" type="matrix" values="0 0 0 0 0 0 0 0 0 0 0 0 0 0 0 0 0 0 127 0" result="hardAlpha"/>
<feOffset dy="0.6"/>
<feGaussianBlur stdDeviation="0.9"/>
<feColorMatrix type="matrix" values="0 0 0 0 0 0 0 0 0 0 0 0 0 0 0 0 0 0 0.1 0"/>
<feBlend mode="normal" in2="effect1_dropShadow_102_23" result="effect2_dropShadow_102_23"/>
<feBlend mode="normal" in="SourceGraphic" in2="effect2_dropShadow_102_23" result="shape"/>
</filter>
<linearGradient id="paint0_linear_102_23" x1="37.1222" y1="55.0466" x2="108.3" y2="96.1412" gradientUnits="userSpaceOnUse">
<stop stop-color="#AA5CC3"/>
<stop offset="1" stop-color="#00A4DC"/>
</linearGradient>
<linearGradient id="paint1_linear_102_23" x1="37.1221" y1="55.0466" x2="108.3" y2="96.1412" gradientUnits="userSpaceOnUse">
<stop stop-color="#AA5CC3"/>
<stop offset="1" stop-color="#00A4DC"/>
</linearGradient>
<linearGradient id="paint2_linear_102_23" x1="39.6699" y1="55.7663" x2="104.342" y2="93.1052" gradientUnits="userSpaceOnUse">
<stop stop-color="#AA5CC3"/>
<stop offset="1" stop-color="#00A4DC"/>
</linearGradient>
<linearGradient id="paint3_linear_102_23" x1="39.6699" y1="55.7663" x2="104.342" y2="93.1052" gradientUnits="userSpaceOnUse">
<stop stop-color="#AA5CC3"/>
<stop offset="1" stop-color="#00A4DC"/>
</linearGradient>
</defs>
</svg>
