<svg width="130" height="130" viewBox="0 0 130 130" fill="none" xmlns="http://www.w3.org/2000/svg">
<path d="M0 65C0 13 13 0 65 0C117 0 130 13 130 65C130 117 117 130 65 130C13 130 0 117 0 65Z" fill="#69AEFF"/>
<g filter="url(#filter0_dd_102_49)">
<path d="M73.2168 78.9086C73.2168 78.7135 73.2261 78.5205 73.2316 78.3264H35.9624C30.4691 78.3264 26 82.7955 26 88.2888C26 93.7822 30.4691 98.2513 35.9624 98.2513H87.5842C79.281 95.74 73.2168 88.0205 73.2168 78.9086ZM47.0893 90.8765H38.0326C36.6057 90.8765 35.4449 89.7157 35.4449 88.2888C35.4449 86.862 36.6057 85.7012 38.0326 85.7012H47.0893C48.5162 85.7012 49.677 86.862 49.677 88.2888C49.677 89.7157 48.5162 90.8765 47.0893 90.8765Z" fill="white"/>
<path d="M35.9624 74.9625H73.6065C75.4474 65.7038 83.6319 58.7024 93.423 58.7024C95.8916 58.7024 98.2573 59.1493 100.446 59.9631C98.7127 57.0189 95.512 55.0376 91.8557 55.0376H35.9624C30.4691 55.0376 26 59.5067 26 65C26 70.4933 30.4691 74.9625 35.9624 74.9625ZM38.0326 62.4124H47.0893C48.5162 62.4124 49.677 63.5732 49.677 65C49.677 66.4268 48.5162 67.5877 47.0893 67.5877H38.0326C36.6057 67.5877 35.4449 66.4268 35.4449 65C35.4449 63.5732 36.6057 62.4124 38.0326 62.4124Z" fill="white"/>
<path d="M35.9624 51.6736H91.8557C97.3487 51.6736 101.818 47.2045 101.818 41.7112C101.818 36.2178 97.3487 31.7487 91.8557 31.7487H35.9624C30.4691 31.7487 26 36.2178 26 41.7112C26 47.2045 30.4691 51.6736 35.9624 51.6736ZM87.4567 38.4119C89.2758 38.4119 90.7559 39.892 90.7559 41.7112C90.7559 43.5303 89.2758 45.0104 87.4567 45.0104C85.6375 45.0104 84.1574 43.5303 84.1574 41.7112C84.1574 39.892 85.6375 38.4119 87.4567 38.4119ZM38.0326 39.1235H47.0893C48.5162 39.1235 49.677 40.2843 49.677 41.7112C49.677 43.138 48.5162 44.2988 47.0893 44.2988H38.0326C36.6057 44.2988 35.4449 43.138 35.4449 41.7112C35.4449 40.2843 36.6057 39.1235 38.0326 39.1235Z" fill="white"/>
<g filter="url(#filter1_d_102_49)">
<path d="M93.423 64.3316C85.3723 64.3316 78.8459 70.8579 78.8459 78.9086C78.8459 86.9593 85.3723 93.4856 93.423 93.4856C101.474 93.4856 108 86.9593 108 78.9086C108 70.8579 101.474 64.3316 93.423 64.3316ZM101.211 75.8205L91.9847 85.0463C91.7896 85.2416 91.5296 85.3495 91.2529 85.3495C90.9763 85.3495 90.7163 85.2419 90.5209 85.0463L85.8942 80.4195C85.6986 80.2242 85.5909 79.9641 85.5909 79.6878C85.5909 79.4114 85.6986 79.1513 85.8942 78.9557L86.8089 78.041C87.004 77.8456 87.2641 77.7377 87.5407 77.7377C87.8171 77.7377 88.0771 77.8454 88.2725 78.0407L91.2529 81.0209L98.8324 73.4419C99.0275 73.2466 99.2876 73.1387 99.5642 73.1387C99.8408 73.1387 100.101 73.2466 100.296 73.4419L101.211 74.3567C101.406 74.5518 101.514 74.8119 101.514 75.0885C101.514 75.3651 101.406 75.6251 101.211 75.8205Z" fill="#D1FF97"/>
</g>
</g>
<defs>
<filter id="filter0_dd_102_49" x="18.8" y="20" width="96.4" height="96.4" filterUnits="userSpaceOnUse" color-interpolation-filters="sRGB">
<feFlood flood-opacity="0" result="BackgroundImageFix"/>
<feColorMatrix in="SourceAlpha" type="matrix" values="0 0 0 0 0 0 0 0 0 0 0 0 0 0 0 0 0 0 127 0" result="hardAlpha"/>
<feOffset dy="3.2"/>
<feGaussianBlur stdDeviation="3.6"/>
<feColorMatrix type="matrix" values="0 0 0 0 0 0 0 0 0 0 0 0 0 0 0 0 0 0 0.13 0"/>
<feBlend mode="normal" in2="BackgroundImageFix" result="effect1_dropShadow_102_49"/>
<feColorMatrix in="SourceAlpha" type="matrix" values="0 0 0 0 0 0 0 0 0 0 0 0 0 0 0 0 0 0 127 0" result="hardAlpha"/>
<feOffset dy="0.6"/>
<feGaussianBlur stdDeviation="0.9"/>
<feColorMatrix type="matrix" values="0 0 0 0 0 0 0 0 0 0 0 0 0 0 0 0 0 0 0.1 0"/>
<feBlend mode="normal" in2="effect1_dropShadow_102_49" result="effect2_dropShadow_102_49"/>
<feBlend mode="normal" in="SourceGraphic" in2="effect2_dropShadow_102_49" result="shape"/>
</filter>
<filter id="filter1_d_102_49" x="70.8459" y="59.3316" width="47.1538" height="47.154" filterUnits="userSpaceOnUse" color-interpolation-filters="sRGB">
<feFlood flood-opacity="0" result="BackgroundImageFix"/>
<feColorMatrix in="SourceAlpha" type="matrix" values="0 0 0 0 0 0 0 0 0 0 0 0 0 0 0 0 0 0 127 0" result="hardAlpha"/>
<feOffset dx="1" dy="4"/>
<feGaussianBlur stdDeviation="4.5"/>
<feComposite in2="hardAlpha" operator="out"/>
<feColorMatrix type="matrix" values="0 0 0 0 0.406651 0 0 0 0 0.729167 0 0 0 0 0 0 0 0 0.3 0"/>
<feBlend mode="normal" in2="BackgroundImageFix" result="effect1_dropShadow_102_49"/>
<feBlend mode="normal" in="SourceGraphic" in2="effect1_dropShadow_102_49" result="shape"/>
</filter>
</defs>
</svg>
