<svg width="130" height="130" viewBox="0 0 130 130" fill="none" xmlns="http://www.w3.org/2000/svg">
<path d="M0 65C0 13 13 0 65 0C117 0 130 13 130 65C130 117 117 130 65 130C13 130 0 117 0 65Z" fill="white"/>
<g clip-path="url(#clip0_103_20)" filter="url(#filter0_dd_103_20)">
<path d="M58.6875 37.1056H57.2376V44.6896H58.6875V37.1056ZM64.9235 37.1056H63.4735V44.6896H64.9235V37.1056ZM73.4437 22.6324L71.9581 20.0308L47.1581 34.504L48.6437 37.1056L73.4437 22.6324Z" fill="#13BEF9"/>
<path d="M73.2986 22.6324L74.7854 20.0308L99.5854 34.504L98.0986 37.1056L73.2986 22.6324Z" fill="#13BEF9"/>
<path d="M103.973 37.1416V34.138H36.0267V37.1416H103.973Z" fill="#13BEF9"/>
<path fill-rule="evenodd" clip-rule="evenodd" d="M77.0696 79.5724V35.0536H80.0432V81.7348C79.2457 80.818 78.2296 80.1592 77.0696 79.5724ZM71.9936 78.8032V16H74.9672V79.1692C74.1329 78.766 72.103 78.8032 71.9936 78.8032ZM43.8219 85.0684C40.1959 82.3576 37.8035 78.034 37.8035 73.1236C37.8035 70.522 38.4916 67.9576 39.7609 65.722H65.1409C66.4458 67.9576 67.0995 70.522 67.0995 73.1236C67.0995 75.3952 66.8095 77.5204 65.9027 79.426C63.9809 77.5576 61.1523 76.7512 58.2881 76.7512C53.2121 76.7512 48.8611 79.9384 47.738 84.7024C47.3386 84.6652 47.0855 84.6292 46.6862 84.6292C45.7069 84.6652 44.7644 84.8128 43.8219 85.0684Z" fill="#13BEF9"/>
<path d="M56.2938 48.0616H48.6079V55.8652H56.2938V48.0616ZM47.6286 48.0616H39.9427V55.8652H47.6286V48.0616ZM47.6286 56.7448H39.9427V64.5496H47.6286V56.7448ZM56.2938 56.7448H48.6079V64.5496H56.2938V56.7448ZM64.9234 56.7448H57.2375V64.5496H64.9234V56.7448ZM64.9234 43.8844H57.2375V51.688H64.9234V43.8844Z" fill="#13BEF9"/>
<path fill-rule="evenodd" clip-rule="evenodd" d="M49.0062 86.2408C50.058 81.7348 54.0822 78.3628 58.8682 78.3628C61.9511 78.3628 64.706 79.756 66.5921 81.9544C68.2227 80.818 70.1813 80.1592 72.3206 80.1592C77.904 80.1592 82.4357 84.7384 82.4357 90.382C82.4357 91.5544 82.255 92.6536 81.8926 93.7156C83.125 95.4016 83.8868 97.5268 83.8868 99.7984C83.8868 105.441 79.354 110.021 73.7705 110.021C71.3044 110.021 69.057 109.142 67.3171 107.676C65.4678 110.278 62.4586 112 59.05 112C55.134 112 51.7254 109.728 50.0223 106.431C49.333 106.577 48.6437 106.65 47.9187 106.65C42.3352 106.65 37.7667 102.07 37.7667 96.4276C37.7667 90.7852 42.2996 86.2048 47.9187 86.2048C48.2812 86.1676 48.6437 86.1676 49.0062 86.2408Z" fill="#13BEF9"/>
</g>
<defs>
<filter id="filter0_dd_103_20" x="28.8" y="12" width="82.4" height="110.4" filterUnits="userSpaceOnUse" color-interpolation-filters="sRGB">
<feFlood flood-opacity="0" result="BackgroundImageFix"/>
<feColorMatrix in="SourceAlpha" type="matrix" values="0 0 0 0 0 0 0 0 0 0 0 0 0 0 0 0 0 0 127 0" result="hardAlpha"/>
<feOffset dy="3.2"/>
<feGaussianBlur stdDeviation="3.6"/>
<feColorMatrix type="matrix" values="0 0 0 0 0 0 0 0 0 0 0 0 0 0 0 0 0 0 0.13 0"/>
<feBlend mode="normal" in2="BackgroundImageFix" result="effect1_dropShadow_103_20"/>
<feColorMatrix in="SourceAlpha" type="matrix" values="0 0 0 0 0 0 0 0 0 0 0 0 0 0 0 0 0 0 127 0" result="hardAlpha"/>
<feOffset dy="0.6"/>
<feGaussianBlur stdDeviation="0.9"/>
<feColorMatrix type="matrix" values="0 0 0 0 0 0 0 0 0 0 0 0 0 0 0 0 0 0 0.1 0"/>
<feBlend mode="normal" in2="effect1_dropShadow_103_20" result="effect2_dropShadow_103_20"/>
<feBlend mode="normal" in="SourceGraphic" in2="effect2_dropShadow_103_20" result="shape"/>
</filter>
<clipPath id="clip0_103_20">
<rect width="68" height="96" fill="white" transform="translate(36 16)"/>
</clipPath>
</defs>
</svg>
