<svg width="130" height="130" viewBox="0 0 130 130" fill="none" xmlns="http://www.w3.org/2000/svg">
<path d="M0 65C0 13 13 0 65 0C117 0 130 13 130 65C130 117 117 130 65 130C13 130 0 117 0 65Z" fill="#5FBFE8"/>
<g filter="url(#filter0_dd_103_52)">
<path d="M25 64.9968C25.0037 59.3767 26.1752 53.8188 28.4403 48.6755L47.5618 101C40.7992 97.7233 35.0962 92.6085 31.106 86.2411C27.1157 79.8737 24.9996 72.5111 25 64.9968ZM92.0052 62.9966C91.5755 67.4164 90.5668 71.7606 89.005 75.9176L85.0047 89.2387L70.5236 46.3553L75.0839 45.8753C75.481 45.7911 75.8343 45.566 76.0783 45.2416C76.3223 44.9172 76.4406 44.5154 76.4113 44.1105C76.3821 43.7056 76.2072 43.325 75.9191 43.0391C75.6309 42.7531 75.249 42.5812 74.8439 42.555C74.8439 42.555 68.3634 43.075 64.1631 43.075L53.6422 42.555C53.2347 42.5736 52.8478 42.7398 52.5539 43.0226C52.2599 43.3055 52.0788 43.6857 52.0445 44.0922C52.0103 44.4987 52.1251 44.9038 52.3675 45.2319C52.61 45.56 52.9635 45.7887 53.3622 45.8753L57.6026 46.3553L63.843 63.3166L55.0824 89.5587L40.4812 46.3553L45.0016 45.8753C45.3976 45.8136 45.7585 45.6124 46.0192 45.308C46.2799 45.0035 46.4232 44.6159 46.4232 44.2151C46.4232 43.8143 46.2799 43.4267 46.0192 43.1223C45.7585 42.8179 45.3976 42.6167 45.0016 42.555C45.0016 42.555 38.5211 43.075 34.3207 43.075H31.5605C34.7362 38.2296 38.9265 34.1318 43.8415 31.0649C48.7566 27.998 54.2791 26.0354 60.0272 25.3126C65.7753 24.5898 71.6119 25.1241 77.1332 26.8787C82.6545 28.6332 87.7288 31.5661 92.0052 35.4744H91.4852C89.6566 35.5268 87.9232 36.301 86.6638 37.6279C85.4044 38.9547 84.7216 40.7262 84.7647 42.555C85.2089 45.9966 86.593 49.2493 88.765 51.9557C90.9041 55.2431 92.0563 59.0746 92.0853 62.9966M65.7632 68.477L78.0842 102.16L78.3642 102.72C70.4502 105.523 61.8515 105.747 53.8023 103.36L65.8032 68.477M100.126 45.7952C105.115 54.9589 106.326 65.7091 103.501 75.753C100.676 85.7969 94.0388 94.3397 85.0047 99.5595L97.2457 64.2367C99.1932 59.7225 100.24 54.8712 100.326 49.9556L100.046 45.9553" fill="white"/>
</g>
<defs>
<filter id="filter0_dd_103_52" x="17.8" y="21" width="94.395" height="94.4" filterUnits="userSpaceOnUse" color-interpolation-filters="sRGB">
<feFlood flood-opacity="0" result="BackgroundImageFix"/>
<feColorMatrix in="SourceAlpha" type="matrix" values="0 0 0 0 0 0 0 0 0 0 0 0 0 0 0 0 0 0 127 0" result="hardAlpha"/>
<feOffset dy="3.2"/>
<feGaussianBlur stdDeviation="3.6"/>
<feColorMatrix type="matrix" values="0 0 0 0 0 0 0 0 0 0 0 0 0 0 0 0 0 0 0.13 0"/>
<feBlend mode="normal" in2="BackgroundImageFix" result="effect1_dropShadow_103_52"/>
<feColorMatrix in="SourceAlpha" type="matrix" values="0 0 0 0 0 0 0 0 0 0 0 0 0 0 0 0 0 0 127 0" result="hardAlpha"/>
<feOffset dy="0.6"/>
<feGaussianBlur stdDeviation="0.9"/>
<feColorMatrix type="matrix" values="0 0 0 0 0 0 0 0 0 0 0 0 0 0 0 0 0 0 0.1 0"/>
<feBlend mode="normal" in2="effect1_dropShadow_103_52" result="effect2_dropShadow_103_52"/>
<feBlend mode="normal" in="SourceGraphic" in2="effect2_dropShadow_103_52" result="shape"/>
</filter>
</defs>
</svg>
